<svg width="32" height="32" viewBox="0 0 32 32" fill="none" xmlns="http://www.w3.org/2000/svg">
<rect width="32" height="32" rx="16" fill="#F2E312"/>
<path d="M8.94752 11.7682C10.1546 10.9715 11.5802 10.5897 13.0156 10.6787C14.0142 10.6563 15.007 10.8387 15.935 11.2152C16.73 11.5517 17.4117 12.1168 17.8971 12.8414C18.3793 13.5221 18.6616 14.3286 18.7107 15.1668H15.2489C15.0575 14.2236 14.2279 13.7358 12.7921 13.7358C12.2835 13.7124 11.7763 13.8069 11.3086 14.0123C11.1532 14.072 11.0194 14.1788 10.9253 14.3184C10.8312 14.4579 10.7812 14.6235 10.7821 14.7928C10.7869 14.9523 10.8359 15.1072 10.9234 15.2396C11.0109 15.372 11.1334 15.4765 11.2767 15.5408C11.856 15.8176 12.467 16.0197 13.0953 16.1425L14.5949 16.5328C15.8445 16.7724 17.0138 17.3319 17.9929 18.1589C18.3716 18.5407 18.6614 19.0043 18.8409 19.5156C19.0203 20.0268 19.0849 20.5726 19.0297 21.1126C18.9746 21.6527 18.8012 22.1732 18.5224 22.6358C18.2435 23.0984 17.8663 23.4913 17.4186 23.7855C16.0667 24.5872 14.5133 24.966 12.9518 24.875C11.907 24.8508 10.8684 24.7035 9.85686 24.4359C9.03261 24.2705 8.24387 23.9566 7.52771 23.509V19.8664C8.27767 20.4099 9.11429 20.8169 10.0004 21.0697C10.9751 21.3904 11.9915 21.5604 13.0156 21.5739C13.6462 21.6164 14.2791 21.5391 14.882 21.3461C15.0299 21.2992 15.1599 21.2069 15.2541 21.0817C15.3484 20.9565 15.4022 20.8047 15.4084 20.647C15.4135 20.5382 15.3929 20.4298 15.3485 20.3308C15.3041 20.2318 15.2372 20.1451 15.1533 20.0778C14.8955 19.8916 14.61 19.7489 14.3078 19.655C13.9089 19.5249 13.2548 19.3297 12.3455 19.0858L11.2767 18.7768C10.1979 18.5381 9.20114 18.0105 8.38915 17.2483C7.78215 16.5774 7.46094 15.6885 7.49586 14.7766C7.47696 14.1922 7.59949 13.612 7.85266 13.0874C8.10584 12.5627 8.48187 12.1096 8.94752 11.7682Z" fill="#221F1F"/>
<path d="M22.1634 20.3175C22.6083 20.3175 23.0431 20.4515 23.413 20.7026C23.7829 20.9537 24.0712 21.3106 24.2414 21.7282C24.4117 22.1458 24.4561 22.6053 24.3693 23.0486C24.2826 23.4919 24.0684 23.8991 23.7538 24.2188C23.4393 24.5384 23.0385 24.7561 22.6022 24.8442C22.1659 24.9324 21.7137 24.8871 21.3027 24.7142C20.8917 24.5412 20.5404 24.2483 20.2933 23.8725C20.0461 23.4967 19.9142 23.0548 19.9142 22.6029C19.9142 21.9968 20.1512 21.4154 20.573 20.9869C20.9948 20.5583 21.5669 20.3175 22.1634 20.3175Z" fill="#05BC52"/>
<path d="M23.4177 18.8121C23.0292 18.6841 22.62 18.6171 22.204 18.6171C21.7594 18.6158 21.3202 18.6908 20.9044 18.8367L19.8208 7.11035H24.4992L23.4177 18.8121Z" fill="#05BC52"/>
</svg>
